#!OML:ASF X:\für Bonn\!DataBase\2005_08_10_Bjorn_Final\c3d\bjorn.ASF
:FULLY-SPECIFIED
:DEGREES
214
root -8.22791 17.4682 4.9396 -386.867 416.962 -391.671
lowerback 5.02185 -1.555 14.3598
upperback 10.0224 -1.90715 5.62106
thorax 7.7507 0.0504398 -1.93414
lowerneck -8.42137 2.70826 -0.065976
upperneck -0.904749 3.75767 -4.61245
head 1.23486 1.81264 -1.29777
rclavicle -1.48095e-014 2.50469e-014
rhumerus -41.679 6.68521 -91.3643
rradius 94.5398
rwrist -3.54558
rhand -30.447 29.8677
rfingers 7.12502
rthumb -3.74912 -0.079023
lclavicle -1.48095e-014 2.50469e-014
lhumerus -42.2862 -32.7057 108.962
lradius 85.462
lwrist -7.20683
lhand -53.0255 -30.1928
lfingers 7.12502
lthumb -25.4902 -1.87765
rfemur -18.5439 -5.02584 23.1767
rtibia 47.8789
rfoot -27.0429 17.2645
rtoes -38.6479
lfemur -11.1118 1.65141 -11.0049
ltibia 84.0267
lfoot -11.4078 0.500569
ltoes -5.79242
215
root -8.04788 17.4282 5.07957 -387.486 417.418 -392.166
lowerback 5.19317 -1.23349 14.4649
upperback 10.0122 -1.43321 5.49791
thorax 7.70532 0.296126 -2.11689
lowerneck -8.91423 2.41451 0.160238
upperneck -0.552996 3.35949 -4.47107
head 1.42678 1.60371 -1.3022
rclavicle 7.78242e-014 4.59193e-014
rhumerus -39.5994 6.8577 -91.8162
rradius 95.6566
rwrist -3.33118
rhand -30.4228 29.7343
rfingers 7.12502
rthumb -3.72575 -0.212851
lclavicle 7.78242e-014 4.59193e-014
lhumerus -43.2751 -31.7948 109.001
lradius 84.9957
lwrist -7.02412
lhand -53.382 -31.1014
lfingers 7.12502
lthumb -25.8316 -2.83555
rfemur -17.5991 -5.1612 23.2436
rtibia 48.1547
rfoot -27.9409 16.961
rtoes -38.3677
lfemur -13.3284 2.48949 -10.6306
ltibia 85.6322
lfoot -12.4705 0.648168
ltoes -4.90791
216
root -7.85778 17.4073 5.21859 -387.888 417.932 -392.525
lowerback 5.22863 -0.914492 14.3148
upperback 9.9583 -0.993047 5.41764
thorax 7.68167 0.50232 -2.12042
lowerneck -9.40018 2.15064 0.227151
upperneck -0.149104 3.01465 -4.29099
head 1.63293 1.42266 -1.26705
rclavicle -3.18552e-014 5.76476e-015
rhumerus -37.6788 7.30398 -92.2202
rradius 96.7965
rwrist -2.96503
rhand -30.9446 29.0899
rfingers 7.12502
rthumb -4.22963 -0.847871
lclavicle -3.18552e-014 5.76476e-015
lhumerus -44.2593 -30.5903 109.002
lradius 84.7856
lwrist -7.40155
lhand -53.519 -30.3881
lfingers 7.12502
lthumb -25.9628 -2.14139
rfemur -16.5571 -5.20831 23.2229
rtibia 48.088
rfoot -28.7091 16.6871
rtoes -37.9328
lfemur -15.5487 3.27632 -10.5281
ltibia 86.7481
lfoot -13.3506 0.95516
ltoes -5.23309
217
root -7.65924 17.4015 5.3537 -388.135 418.472 -392.753
lowerback 5.19373 -0.57623 14.0514
upperback 9.88937 -0.542565 5.31889
thorax 7.67862 0.705543 -2.08274
lowerneck -9.70513 1.8868 0.138685
upperneck -0.0245346 2.67249 -4.0207
head 1.71227 1.25325 -1.1786
rclavicle -3.86139e-014 5.96354e-016
rhumerus -35.9413 7.80846 -92.6104
rradius 97.8381
rwrist -2.43911
rhand -31.7078 28.1841
rfingers 7.12502
rthumb -4.96657 -1.73771
lclavicle -3.86139e-014 5.96354e-016
lhumerus -45.2034 -29.3389 108.93
lradius 84.7697
lwrist -7.90915
lhand -53.5195 -29.002
lfingers 7.12502
lthumb -25.9633 -0.75535
rfemur -15.3841 -5.192 23.1154
rtibia 47.7219
rfoot -29.4248 16.4359
rtoes -37.5636
lfemur -17.7104 4.05777 -10.6462
ltibia 87.3669
lfoot -14.0533 1.41541
ltoes -6.58967
218
root -7.45851 17.4033 5.48642 -388.462 419.011 -392.955
lowerback 5.27835 -0.250023 13.7425
upperback 9.83081 -0.0847809 5.19975
thorax 7.61532 0.907812 -2.04214
lowerneck -9.66386 1.60086 0.0297215
upperneck -0.331074 2.28735 -3.73373
head 1.58868 1.07426 -1.08504
rclavicle -3.39922e-014 -5.01931e-014
rhumerus -34.326 8.30127 -93.0804
rradius 98.7714
rwrist -1.84696
rhand -32.0669 27.7026
rfingers 7.12502
rthumb -5.3133 -2.21077
lclavicle -3.39922e-014 -5.01931e-014
lhumerus -46.0601 -28.1606 108.766
lradius 84.8623
lwrist -8.09966
lhand -53.3666 -27.4779
lfingers 7.12502
lthumb -25.8168 0.790128
rfemur -13.9564 -5.09597 23.0041
rtibia 47.1058
rfoot -30.1047 16.158
rtoes -37.0793
lfemur -19.7378 4.88957 -10.8159
ltibia 87.6318
lfoot -14.7526 1.75826
ltoes -8.7828
219
root -7.25085 17.413 5.61596 -388.703 419.596 -393.155
lowerback 5.2656 0.0761201 13.3626
upperback 9.70954 0.355695 5.09829
thorax 7.52961 1.09106 -1.94577
lowerneck -9.41104 1.28198 -0.172788
upperneck -0.733643 1.86291 -3.38609
head 1.39602 0.879645 -0.958038
rclavicle 2.40529e-014 -2.5345e-014
rhumerus -32.9657 8.85868 -93.5643
rradius 99.7427
rwrist -1.40601
rhand -32.2637 27.5618
rfingers 7.12502
rthumb -5.50333 -2.34673
lclavicle 2.40529e-014 -2.5345e-014
lhumerus -46.8621 -26.9531 108.597
lradius 84.9792
lwrist -8.40116
lhand -53.1267 -25.7033
lfingers 7.12502
lthumb -25.5871 2.59794
rfemur -12.513 -4.98874 22.8751
rtibia 46.2871
rfoot -30.6536 15.9507
rtoes -36.3885
lfemur -21.874 5.69073 -11.1107
ltibia 87.6248
lfoot -15.464 1.93586
ltoes -11.1798
220
root -7.03543 17.4308 5.74414 -388.956 420.171 -393.403
lowerback 5.19451 0.436312 13.0279
upperback 9.563 0.832762 4.96993
thorax 7.45443 1.29593 -1.90027
lowerneck -9.19881 0.922798 -0.245311
upperneck -0.935422 1.37734 -3.08098
head 1.28058 0.648436 -0.868688
rclavicle -3.24516e-014 -3.38928e-014
rhumerus -31.8334 9.41583 -94.1173
rradius 100.604
rwrist -1.14839
rhand -32.7481 27.6721
rfingers 7.12502
rthumb -5.97106 -2.22381
lclavicle -3.24516e-014 -3.38928e-014
lhumerus -47.6995 -25.841 108.325
lradius 85.0265
lwrist -8.88469
lhand -52.8382 -24.0733
lfingers 7.12502
lthumb -25.3107 4.26732
rfemur -10.9882 -4.86145 22.7768
rtibia 45.2972
rfoot -31.0851 15.7499
rtoes -35.5144
lfemur -24.0283 6.44911 -11.4622
ltibia 87.3359
lfoot -16.0894 2.2301
ltoes -13.9453
